<svg width="70" height="70" viewBox="0 0 70 70" fill="none" xmlns="http://www.w3.org/2000/svg">
<circle cx="35" cy="35" r="35" fill="#333232"/>
<path d="M42.7695 34.6453C42.039 33.7923 41.7071 33.0531 41.7071 31.7972V31.3701C41.7071 29.7335 41.3304 28.6791 40.5115 27.6246C39.2493 25.987 37.1244 25 35.0442 25H34.9558C32.9194 25 30.8611 25.9417 29.577 27.5128C28.7133 28.5884 28.2929 29.6882 28.2929 31.3701V31.7972C28.2929 33.0531 27.9828 33.7923 27.2305 34.6453C26.6769 35.2738 26.5 36.0815 26.5 36.9557C26.5 37.8309 26.7872 38.6598 27.3637 39.3336C28.116 40.1413 29.1785 40.6569 30.2638 40.7466C31.835 40.9258 33.4063 40.9933 35.0005 40.9933C36.5937 40.9933 38.165 40.8805 39.7372 40.7466C40.8215 40.6569 41.884 40.1413 42.6363 39.3336C43.2118 38.6598 43.5 37.8309 43.5 36.9557C43.5 36.0815 43.3231 35.2738 42.7695 34.6453Z" fill="white"/>
<path opacity="0.4" d="M37.0088 42.2283C36.5088 42.1215 33.4627 42.1215 32.9627 42.2283C32.5354 42.327 32.0732 42.5566 32.0732 43.0602C32.0981 43.5406 32.3794 43.9646 32.7689 44.2335L32.768 44.2345C33.2718 44.6273 33.8632 44.877 34.4824 44.9667C34.8123 45.012 35.1482 45.01 35.4901 44.9667C36.1083 44.877 36.6997 44.6273 37.2036 44.2345L37.2026 44.2335C37.5922 43.9646 37.8734 43.5406 37.8983 43.0602C37.8983 42.5566 37.4361 42.327 37.0088 42.2283Z" fill="white"/>
</svg>
