<svg width="53" height="52" viewBox="0 0 53 52" fill="none" xmlns="http://www.w3.org/2000/svg">
<rect x="0.34082" width="52.1465" height="52" rx="26" fill="#F9F9F9"/>
<path fill-rule="evenodd" clip-rule="evenodd" d="M19.3945 17H33.434C34.5417 17 35.4396 17.8954 35.4396 19V33C35.4396 34.1046 34.5417 35 33.434 35H19.3945C18.2869 35 17.3889 34.1046 17.3889 33V19C17.3889 17.8954 18.2869 17 19.3945 17ZM22.403 32C22.6799 32 22.9044 31.7761 22.9044 31.5V24.5C22.9044 24.2239 22.6799 24 22.403 24H20.8988C20.6219 24 20.3974 24.2239 20.3974 24.5V31.5C20.3974 31.7761 20.6219 32 20.8988 32H22.403ZM21.6509 23C20.8201 23 20.1467 22.3284 20.1467 21.5C20.1467 20.6716 20.8201 20 21.6509 20C22.4816 20 23.1551 20.6716 23.1551 21.5C23.1551 22.3284 22.4816 23 21.6509 23ZM31.9298 32C32.2067 32 32.4312 31.7761 32.4312 31.5V26.9C32.4637 25.3108 31.2856 23.9545 29.7035 23.76C28.5974 23.6592 27.5257 24.1744 26.9157 25.1V24.5C26.9157 24.2239 26.6912 24 26.4143 24H24.91C24.6331 24 24.4086 24.2239 24.4086 24.5V31.5C24.4086 31.7761 24.6331 32 24.91 32H26.4143C26.6912 32 26.9157 31.7761 26.9157 31.5V27.75C26.9157 26.9216 27.5891 26.25 28.4199 26.25C29.2507 26.25 29.9241 26.9216 29.9241 27.75V31.5C29.9241 31.7761 30.1486 32 30.4255 32H31.9298Z" fill="#A737FF"/>
</svg>
