<svg width="56" height="56" viewBox="0 0 56 56" fill="none" xmlns="http://www.w3.org/2000/svg">
<path d="M27.9986 2.84046C31.2849 2.84046 34.5391 3.48775 37.5752 4.74537C40.6114 6.003 43.3701 7.84632 45.6939 10.1701C48.0177 12.4939 49.861 15.2526 51.1186 18.2888C52.3763 21.325 53.0236 24.5791 53.0236 27.8654C53.0236 31.1517 52.3763 34.4059 51.1186 37.4421C49.861 40.4782 48.0177 43.237 45.6939 45.5607C43.3701 47.8845 40.6114 49.7278 37.5752 50.9855C34.5391 52.2431 31.2849 52.8904 27.9986 52.8904C24.7123 52.8904 21.4581 52.2431 18.422 50.9855C15.3858 49.7278 12.6271 47.8845 10.3033 45.5607C7.97949 43.237 6.13616 40.4782 4.87854 37.4421C3.62092 34.4059 2.97363 31.1517 2.97363 27.8654C2.97363 24.5791 3.62092 21.325 4.87854 18.2888C6.13617 15.2526 7.97949 12.4939 10.3033 10.1701C12.6271 7.84632 15.3858 6.003 18.422 4.74537C21.4581 3.48775 24.7123 2.84046 27.9986 2.84046L27.9986 2.84046Z" stroke="#05050F" stroke-width="3"/>
<path d="M27.301 2.50958C33.0386 2.35225 38.6614 4.13522 43.26 7.57004C47.8585 11.0049 51.1637 15.8907 52.641 21.437C54.1182 26.9834 53.6811 32.8659 51.4002 38.133C49.1194 43.4001 45.1283 47.7437 40.0726 50.4611C35.0169 53.1785 29.1923 54.1108 23.541 53.1071C17.8897 52.1034 12.7423 49.2225 8.93145 44.9305C5.12062 40.6384 2.86926 35.1861 2.54159 29.4558C2.21391 23.7254 3.82909 18.0521 7.12582 13.3536" stroke="#A737FF" stroke-width="5" stroke-linecap="round"/>
<g clip-path="url(#clip0_57_1004)">
<path d="M11.9235 32.302V30.212L18.1365 21.32H21.2335V29.984H22.9055V32.302H21.2335V35H18.5735V32.302H11.9235ZM18.7445 24.17L14.8495 29.984H18.7445V24.17ZM34.059 23.448H27.903V26.697C28.169 26.3677 28.549 26.1017 29.043 25.899C29.537 25.6837 30.0627 25.576 30.62 25.576C31.6333 25.576 32.463 25.7977 33.109 26.241C33.755 26.6843 34.2237 27.2543 34.515 27.951C34.8063 28.635 34.952 29.3697 34.952 30.155C34.952 31.6117 34.534 32.7833 33.698 33.67C32.8747 34.5567 31.6967 35 30.164 35C28.72 35 27.5673 34.639 26.706 33.917C25.8447 33.195 25.357 32.2513 25.243 31.086H27.827C27.941 31.5927 28.1943 31.998 28.587 32.302C28.9923 32.606 29.5053 32.758 30.126 32.758C30.8733 32.758 31.437 32.5237 31.817 32.055C32.197 31.5863 32.387 30.9657 32.387 30.193C32.387 29.4077 32.1907 28.8123 31.798 28.407C31.418 27.989 30.8543 27.78 30.107 27.78C29.575 27.78 29.1317 27.913 28.777 28.179C28.4223 28.445 28.169 28.7997 28.017 29.243H25.471V21.111H34.059V23.448Z" fill="white"/>
<path d="M37.1948 22.9345C37.1948 23.494 37.2557 23.9137 37.3775 24.1935C37.4992 24.4732 37.6967 24.6131 37.9699 24.6131C38.5097 24.6131 38.7796 24.0536 38.7796 22.9345C38.7796 21.822 38.5097 21.2658 37.9699 21.2658C37.6967 21.2658 37.4992 21.404 37.3775 21.6805C37.2557 21.957 37.1948 22.375 37.1948 22.9345ZM39.456 22.9345C39.456 23.685 39.3293 24.2527 39.0758 24.6378C38.8257 25.0196 38.457 25.2105 37.9699 25.2105C37.5091 25.2105 37.1504 25.0147 36.8936 24.623C36.6402 24.2313 36.5135 23.6685 36.5135 22.9345C36.5135 22.1874 36.6352 21.6245 36.8788 21.246C37.1257 20.8675 37.4894 20.6782 37.9699 20.6782C38.4472 20.6782 38.8142 20.8741 39.0709 21.2658C39.3276 21.6574 39.456 22.2137 39.456 22.9345ZM41.5395 25.8277C41.5395 26.3905 41.6003 26.8118 41.7221 27.0916C41.8439 27.368 42.043 27.5063 42.3195 27.5063C42.596 27.5063 42.8001 27.3697 42.9317 27.0965C43.0634 26.82 43.1292 26.3971 43.1292 25.8277C43.1292 25.2648 43.0634 24.8485 42.9317 24.5786C42.8001 24.3054 42.596 24.1688 42.3195 24.1688C42.043 24.1688 41.8439 24.3054 41.7221 24.5786C41.6003 24.8485 41.5395 25.2648 41.5395 25.8277ZM43.8056 25.8277C43.8056 26.5748 43.6789 27.1409 43.4254 27.526C43.1753 27.9078 42.8067 28.0987 42.3195 28.0987C41.8521 28.0987 41.4917 27.9029 41.2383 27.5112C40.9881 27.1195 40.8631 26.5584 40.8631 25.8277C40.8631 25.0805 40.9849 24.5177 41.2284 24.1392C41.4753 23.7607 41.839 23.5714 42.3195 23.5714C42.7869 23.5714 43.1506 23.7656 43.4106 24.154C43.6739 24.5391 43.8056 25.097 43.8056 25.8277ZM42.5318 20.7819L38.5278 28H37.8021L41.8061 20.7819H42.5318Z" fill="white"/>
</g>
<defs>
<clipPath id="clip0_57_1004">
<rect width="34" height="29" fill="white" transform="translate(11 14)"/>
</clipPath>
</defs>
</svg>
