<svg width="88" height="60" viewBox="0 0 88 60" fill="none" xmlns="http://www.w3.org/2000/svg">
<path d="M86.905 4H4.14307V57H86.905V4Z" stroke="#CDCDCD" stroke-linecap="round" stroke-linejoin="round"/>
<path d="M6.25 56C6.25 54.7574 5.24264 53.75 4 53.75C2.75736 53.75 1.75 54.7574 1.75 56C1.75 57.2426 2.75736 58.25 4 58.25C5.24264 58.25 6.25 57.2426 6.25 56Z" fill="#14CDB6" stroke="white" stroke-width="1.5"/>
<path d="M7 56C7 54.3431 5.65685 53 4 53C2.34315 53 1 54.3431 1 56C1 57.6569 2.34315 59 4 59C5.65685 59 7 57.6569 7 56Z" stroke="white"/>
<path d="M84.25 4C84.25 2.75736 83.2426 1.75 82 1.75C80.7574 1.75 79.75 2.75736 79.75 4C79.75 5.24264 80.7574 6.25 82 6.25C83.2426 6.25 84.25 5.24264 84.25 4Z" fill="#14CDB6" stroke="white" stroke-width="1.5"/>
<path d="M85 4C85 2.34315 83.6569 1 82 1C80.3431 1 79 2.34315 79 4C79 5.65685 80.3431 7 82 7C83.6569 7 85 5.65685 85 4Z" stroke="white"/>
<path d="M49.6431 14H15" stroke="#CDCDCD" stroke-linecap="round" stroke-linejoin="round"/>
<path d="M69.5092 22.5H15" stroke="#CDCDCD" stroke-linecap="round" stroke-linejoin="round"/>
<path d="M52.25 14C52.25 12.7574 51.2426 11.75 50 11.75C48.7574 11.75 47.75 12.7574 47.75 14C47.75 15.2426 48.7574 16.25 50 16.25C51.2426 16.25 52.25 15.2426 52.25 14Z" fill="#14CDB6" stroke="white" stroke-width="1.5"/>
<path d="M53 14C53 12.3431 51.6569 11 50 11C48.3431 11 47 12.3431 47 14C47 15.6569 48.3431 17 50 17C51.6569 17 53 15.6569 53 14Z" stroke="white"/>
<path d="M72.25 23C72.25 21.7574 71.2426 20.75 70 20.75C68.7574 20.75 67.75 21.7574 67.75 23C67.75 24.2426 68.7574 25.25 70 25.25C71.2426 25.25 72.25 24.2426 72.25 23Z" fill="#14CDB6" stroke="white" stroke-width="1.5"/>
<path d="M73 23C73 21.3431 71.6569 20 70 20C68.3431 20 67 21.3431 67 23C67 24.6569 68.3431 26 70 26C71.6569 26 73 24.6569 73 23Z" stroke="white"/>
<path d="M60.6176 30.5H15" stroke="#CDCDCD" stroke-linecap="round" stroke-linejoin="round"/>
<path d="M49.5 46.5H15" stroke="#CDCDCD" stroke-linecap="round" stroke-linejoin="round"/>
<path d="M52.25 47C52.25 45.7574 51.2426 44.75 50 44.75C48.7574 44.75 47.75 45.7574 47.75 47C47.75 48.2426 48.7574 49.25 50 49.25C51.2426 49.25 52.25 48.2426 52.25 47Z" fill="#14CDB6" stroke="white" stroke-width="1.5"/>
<path d="M53 47C53 45.3431 51.6569 44 50 44C48.3431 44 47 45.3431 47 47C47 48.6569 48.3431 50 50 50C51.6569 50 53 48.6569 53 47Z" stroke="white"/>
<path d="M41.6 38.5H15" stroke="#CDCDCD" stroke-linecap="round" stroke-linejoin="round"/>
<path d="M63.25 31C63.25 29.7574 62.2426 28.75 61 28.75C59.7574 28.75 58.75 29.7574 58.75 31C58.75 32.2426 59.7574 33.25 61 33.25C62.2426 33.25 63.25 32.2426 63.25 31Z" fill="#14CDB6" stroke="white" stroke-width="1.5"/>
<path d="M64 31C64 29.3431 62.6569 28 61 28C59.3431 28 58 29.3431 58 31C58 32.6569 59.3431 34 61 34C62.6569 34 64 32.6569 64 31Z" stroke="white"/>
<path d="M44.25 39C44.25 37.7574 43.2426 36.75 42 36.75C40.7574 36.75 39.75 37.7574 39.75 39C39.75 40.2426 40.7574 41.25 42 41.25C43.2426 41.25 44.25 40.2426 44.25 39Z" fill="#14CDB6" stroke="white" stroke-width="1.5"/>
<path d="M45 39C45 37.3431 43.6569 36 42 36C40.3431 36 39 37.3431 39 39C39 40.6569 40.3431 42 42 42C43.6569 42 45 40.6569 45 39Z" stroke="white"/>
</svg>
