<svg width="84" height="71" viewBox="0 0 84 71" fill="none" xmlns="http://www.w3.org/2000/svg">
<path fill-rule="evenodd" clip-rule="evenodd" d="M80 54.7916C80 57.6695 77.7795 60 75.0435 60H8.95652C6.22052 60 4 57.6695 4 54.7916V6.20839C4 3.3305 6.22052 1 8.95652 1H75.0435C77.7795 1 80 3.3305 80 6.20839V54.7916Z" stroke="#CDCDCD" stroke-linecap="round" stroke-linejoin="round"/>
<path d="M18 67H64" stroke="#CDCDCD" stroke-linecap="round" stroke-linejoin="round"/>
<path d="M41 60V67" stroke="#CDCDCD" stroke-linecap="round" stroke-linejoin="round"/>
<path d="M4 46H80" stroke="#CDCDCD" stroke-linecap="round" stroke-linejoin="round"/>
<path d="M15 37L38.434 15L54.7358 30.3043L69 16.913" stroke="#CDCDCD" stroke-linecap="round" stroke-linejoin="round"/>
<path d="M17.25 37C17.25 35.7574 16.2426 34.75 15 34.75C13.7574 34.75 12.75 35.7574 12.75 37C12.75 38.2426 13.7574 39.25 15 39.25C16.2426 39.25 17.25 38.2426 17.25 37Z" fill="#14CDB6" stroke="white" stroke-width="1.5"/>
<path d="M18 37C18 35.3431 16.6569 34 15 34C13.3431 34 12 35.3431 12 37C12 38.6569 13.3431 40 15 40C16.6569 40 18 38.6569 18 37Z" stroke="white"/>
<path d="M41.25 15C41.25 13.7574 40.2426 12.75 39 12.75C37.7574 12.75 36.75 13.7574 36.75 15C36.75 16.2426 37.7574 17.25 39 17.25C40.2426 17.25 41.25 16.2426 41.25 15Z" fill="#14CDB6" stroke="white" stroke-width="1.5"/>
<path d="M42 15C42 13.3431 40.6569 12 39 12C37.3431 12 36 13.3431 36 15C36 16.6569 37.3431 18 39 18C40.6569 18 42 16.6569 42 15Z" stroke="white"/>
<path d="M57.25 30C57.25 28.7574 56.2426 27.75 55 27.75C53.7574 27.75 52.75 28.7574 52.75 30C52.75 31.2426 53.7574 32.25 55 32.25C56.2426 32.25 57.25 31.2426 57.25 30Z" fill="#14CDB6" stroke="white" stroke-width="1.5"/>
<path d="M58 30C58 28.3431 56.6569 27 55 27C53.3431 27 52 28.3431 52 30C52 31.6569 53.3431 33 55 33C56.6569 33 58 31.6569 58 30Z" stroke="white"/>
<path d="M72.25 16C72.25 14.7574 71.2426 13.75 70 13.75C68.7574 13.75 67.75 14.7574 67.75 16C67.75 17.2426 68.7574 18.25 70 18.25C71.2426 18.25 72.25 17.2426 72.25 16Z" fill="#14CDB6" stroke="white" stroke-width="1.5"/>
<path d="M73 16C73 14.3431 71.6569 13 70 13C68.3431 13 67 14.3431 67 16C67 17.6569 68.3431 19 70 19C71.6569 19 73 17.6569 73 16Z" stroke="white"/>
<path d="M82.25 46C82.25 44.7574 81.2426 43.75 80 43.75C78.7574 43.75 77.75 44.7574 77.75 46C77.75 47.2426 78.7574 48.25 80 48.25C81.2426 48.25 82.25 47.2426 82.25 46Z" fill="#14CDB6" stroke="white" stroke-width="1.5"/>
<path d="M83 46C83 44.3431 81.6569 43 80 43C78.3431 43 77 44.3431 77 46C77 47.6569 78.3431 49 80 49C81.6569 49 83 47.6569 83 46Z" stroke="white"/>
<path d="M6.25 46C6.25 44.7574 5.24264 43.75 4 43.75C2.75736 43.75 1.75 44.7574 1.75 46C1.75 47.2426 2.75736 48.25 4 48.25C5.24264 48.25 6.25 47.2426 6.25 46Z" fill="#14CDB6" stroke="white" stroke-width="1.5"/>
<path d="M7 46C7 44.3431 5.65685 43 4 43C2.34315 43 1 44.3431 1 46C1 47.6569 2.34315 49 4 49C5.65685 49 7 47.6569 7 46Z" stroke="white"/>
<path d="M43.25 59C43.25 57.7574 42.2426 56.75 41 56.75C39.7574 56.75 38.75 57.7574 38.75 59C38.75 60.2426 39.7574 61.25 41 61.25C42.2426 61.25 43.25 60.2426 43.25 59Z" fill="#14CDB6" stroke="white" stroke-width="1.5"/>
<path d="M44 59C44 57.3431 42.6569 56 41 56C39.3431 56 38 57.3431 38 59C38 60.6569 39.3431 62 41 62C42.6569 62 44 60.6569 44 59Z" stroke="white"/>
<path d="M19.25 67C19.25 65.7574 18.2426 64.75 17 64.75C15.7574 64.75 14.75 65.7574 14.75 67C14.75 68.2426 15.7574 69.25 17 69.25C18.2426 69.25 19.25 68.2426 19.25 67Z" fill="#14CDB6" stroke="white" stroke-width="1.5"/>
<path d="M20 67C20 65.3431 18.6569 64 17 64C15.3431 64 14 65.3431 14 67C14 68.6569 15.3431 70 17 70C18.6569 70 20 68.6569 20 67Z" stroke="white"/>
<path d="M67.25 67C67.25 65.7574 66.2426 64.75 65 64.75C63.7574 64.75 62.75 65.7574 62.75 67C62.75 68.2426 63.7574 69.25 65 69.25C66.2426 69.25 67.25 68.2426 67.25 67Z" fill="#14CDB6" stroke="white" stroke-width="1.5"/>
<path d="M68 67C68 65.3431 66.6569 64 65 64C63.3431 64 62 65.3431 62 67C62 68.6569 63.3431 70 65 70C66.6569 70 68 68.6569 68 67Z" stroke="white"/>
</svg>
