<svg width="88" height="82" viewBox="0 0 88 82" fill="none" xmlns="http://www.w3.org/2000/svg">
<path d="M1 59H87" stroke="#CDCDCD" stroke-linecap="round" stroke-linejoin="round"/>
<path d="M1 4H87" stroke="#CDCDCD" stroke-linecap="round" stroke-linejoin="round"/>
<path fill-rule="evenodd" clip-rule="evenodd" d="M9 59H80V4H9V59Z" stroke="#CDCDCD" stroke-linecap="round" stroke-linejoin="round"/>
<path d="M44 59V71" stroke="#CDCDCD" stroke-linecap="round" stroke-linejoin="round"/>
<path fill-rule="evenodd" clip-rule="evenodd" d="M49 76C49 78.7633 46.76 81 44 81C41.24 81 39 78.7633 39 76C39 73.24 41.24 71 44 71C46.76 71 49 73.24 49 76Z" stroke="#CDCDCD" stroke-linecap="round" stroke-linejoin="round"/>
<path d="M11.25 59C11.25 57.7574 10.2426 56.75 9 56.75C7.75736 56.75 6.75 57.7574 6.75 59C6.75 60.2426 7.75736 61.25 9 61.25C10.2426 61.25 11.25 60.2426 11.25 59Z" fill="#14CDB6" stroke="white" stroke-width="1.5"/>
<path d="M12 59C12 57.3431 10.6569 56 9 56C7.34315 56 6 57.3431 6 59C6 60.6569 7.34315 62 9 62C10.6569 62 12 60.6569 12 59Z" stroke="white"/>
<path d="M46.25 76C46.25 74.7574 45.2426 73.75 44 73.75C42.7574 73.75 41.75 74.7574 41.75 76C41.75 77.2426 42.7574 78.25 44 78.25C45.2426 78.25 46.25 77.2426 46.25 76Z" fill="#14CDB6" stroke="white" stroke-width="1.5"/>
<path d="M47 76C47 74.3431 45.6569 73 44 73C42.3431 73 41 74.3431 41 76C41 77.6569 42.3431 79 44 79C45.6569 79 47 77.6569 47 76Z" stroke="white"/>
<path d="M11.25 4C11.25 2.75736 10.2426 1.75 9 1.75C7.75736 1.75 6.75 2.75736 6.75 4C6.75 5.24264 7.75736 6.25 9 6.25C10.2426 6.25 11.25 5.24264 11.25 4Z" fill="#14CDB6" stroke="white" stroke-width="1.5"/>
<path d="M12 4C12 2.34315 10.6569 1 9 1C7.34315 1 6 2.34315 6 4C6 5.65685 7.34315 7 9 7C10.6569 7 12 5.65685 12 4Z" stroke="white"/>
<path d="M82.25 59C82.25 57.7574 81.2426 56.75 80 56.75C78.7574 56.75 77.75 57.7574 77.75 59C77.75 60.2426 78.7574 61.25 80 61.25C81.2426 61.25 82.25 60.2426 82.25 59Z" fill="#14CDB6" stroke="white" stroke-width="1.5"/>
<path d="M83 59C83 57.3431 81.6569 56 80 56C78.3431 56 77 57.3431 77 59C77 60.6569 78.3431 62 80 62C81.6569 62 83 60.6569 83 59Z" stroke="white"/>
<path d="M82.25 4C82.25 2.75736 81.2426 1.75 80 1.75C78.7574 1.75 77.75 2.75736 77.75 4C77.75 5.24264 78.7574 6.25 80 6.25C81.2426 6.25 82.25 5.24264 82.25 4Z" fill="#14CDB6" stroke="white" stroke-width="1.5"/>
<path d="M83 4C83 2.34315 81.6569 1 80 1C78.3431 1 77 2.34315 77 4C77 5.65685 78.3431 7 80 7C81.6569 7 83 5.65685 83 4Z" stroke="white"/>
<path d="M23.5 37.1745L32.438 27.9742L41.6369 35.5742L51.2108 30.387L60.1727 39.8896L67.5 23" stroke="#CDCDCD" stroke-linecap="round" stroke-linejoin="round"/>
<path d="M25.25 38C25.25 36.7574 24.2426 35.75 23 35.75C21.7574 35.75 20.75 36.7574 20.75 38C20.75 39.2426 21.7574 40.25 23 40.25C24.2426 40.25 25.25 39.2426 25.25 38Z" fill="#14CDB6" stroke="white" stroke-width="1.5"/>
<path d="M26 38C26 36.3431 24.6569 35 23 35C21.3431 35 20 36.3431 20 38C20 39.6569 21.3431 41 23 41C24.6569 41 26 39.6569 26 38Z" stroke="white"/>
<path d="M70.25 22C70.25 20.7574 69.2426 19.75 68 19.75C66.7574 19.75 65.75 20.7574 65.75 22C65.75 23.2426 66.7574 24.25 68 24.25C69.2426 24.25 70.25 23.2426 70.25 22Z" fill="#14CDB6" stroke="white" stroke-width="1.5"/>
<path d="M71 22C71 20.3431 69.6569 19 68 19C66.3431 19 65 20.3431 65 22C65 23.6569 66.3431 25 68 25C69.6569 25 71 23.6569 71 22Z" stroke="white"/>
</svg>
