<svg width="86" height="60" viewBox="0 0 86 60" fill="none" xmlns="http://www.w3.org/2000/svg">
<path d="M74 12H23V50H74V12Z" stroke="#CDCDCD" stroke-linecap="round" stroke-linejoin="round"/>
<path d="M83 4H4V57H83V4Z" stroke="#CDCDCD" stroke-linecap="round" stroke-linejoin="round"/>
<path d="M76.25 49C76.25 47.7574 75.2426 46.75 74 46.75C72.7574 46.75 71.75 47.7574 71.75 49C71.75 50.2426 72.7574 51.25 74 51.25C75.2426 51.25 76.25 50.2426 76.25 49Z" fill="#14CDB6" stroke="white" stroke-width="1.5"/>
<path d="M77 49C77 47.3431 75.6569 46 74 46C72.3431 46 71 47.3431 71 49C71 50.6569 72.3431 52 74 52C75.6569 52 77 50.6569 77 49Z" stroke="white"/>
<path d="M26.25 12C26.25 10.7574 25.2426 9.75 24 9.75C22.7574 9.75 21.75 10.7574 21.75 12C21.75 13.2426 22.7574 14.25 24 14.25C25.2426 14.25 26.25 13.2426 26.25 12Z" fill="#14CDB6" stroke="white" stroke-width="1.5"/>
<path d="M27 12C27 10.3431 25.6569 9 24 9C22.3431 9 21 10.3431 21 12C21 13.6569 22.3431 15 24 15C25.6569 15 27 13.6569 27 12Z" stroke="white"/>
<path d="M84.25 4C84.25 2.75736 83.2426 1.75 82 1.75C80.7574 1.75 79.75 2.75736 79.75 4C79.75 5.24264 80.7574 6.25 82 6.25C83.2426 6.25 84.25 5.24264 84.25 4Z" fill="#14CDB6" stroke="white" stroke-width="1.5"/>
<path d="M85 4C85 2.34315 83.6569 1 82 1C80.3431 1 79 2.34315 79 4C79 5.65685 80.3431 7 82 7C83.6569 7 85 5.65685 85 4Z" stroke="white"/>
<path d="M6.25 4C6.25 2.75736 5.24264 1.75 4 1.75C2.75736 1.75 1.75 2.75736 1.75 4C1.75 5.24264 2.75736 6.25 4 6.25C5.24264 6.25 6.25 5.24264 6.25 4Z" fill="#14CDB6" stroke="white" stroke-width="1.5"/>
<path d="M7 4C7 2.34315 5.65685 1 4 1C2.34315 1 1 2.34315 1 4C1 5.65685 2.34315 7 4 7C5.65685 7 7 5.65685 7 4Z" stroke="white"/>
<path d="M15 4.5V56.5" stroke="#CDCDCD" stroke-linecap="round" stroke-linejoin="round"/>
<path d="M17.25 56C17.25 54.7574 16.2426 53.75 15 53.75C13.7574 53.75 12.75 54.7574 12.75 56C12.75 57.2426 13.7574 58.25 15 58.25C16.2426 58.25 17.25 57.2426 17.25 56Z" fill="#14CDB6" stroke="white" stroke-width="1.5"/>
<path d="M18 56C18 54.3431 16.6569 53 15 53C13.3431 53 12 54.3431 12 56C12 57.6569 13.3431 59 15 59C16.6569 59 18 57.6569 18 56Z" stroke="white"/>
</svg>
