<svg width="58" height="74" viewBox="0 0 58 74" fill="none" xmlns="http://www.w3.org/2000/svg">
<path fill-rule="evenodd" clip-rule="evenodd" d="M4.82417 31.4202C1.40342 41.1106 0.179144 46.7399 1.15135 48.3083C2.12356 49.8767 4.17286 50.3168 7.29924 49.6286V56.0216C7.3469 60.6109 9.69921 62.9055 14.3562 62.9055C21.3416 62.9055 20.9055 62.9789 21.7963 62.9894C24.8034 63.0252 26.4018 64.3189 27.2437 68.3343C27.4368 69.2549 28.1735 70.0087 29.4537 70.5957L53.2836 70.5926L50.1279 51.3912C49.5293 47.6332 50.2157 44.5445 52.1872 42.125C55.1444 38.4958 59.9243 27.1602 55.1444 15.6706C50.3646 4.18094 35.2567 -4.0898 19.8954 4.18094C9.65452 9.69477 4.63078 18.7745 4.82417 31.4202Z" stroke="#CDCDCD" stroke-linecap="round" stroke-linejoin="round"/>
<path d="M54.793 70.1685C54.793 68.9259 53.7856 67.9185 52.543 67.9185C51.3003 67.9185 50.293 68.9259 50.293 70.1685C50.293 71.4112 51.3003 72.4185 52.543 72.4185C53.7856 72.4185 54.793 71.4112 54.793 70.1685Z" fill="#14CDB6" stroke="white" stroke-width="1.5"/>
<path d="M55.543 70.1685C55.543 68.5117 54.1998 67.1685 52.543 67.1685C50.8861 67.1685 49.543 68.5117 49.543 70.1685C49.543 71.8254 50.8861 73.1685 52.543 73.1685C54.1998 73.1685 55.543 71.8254 55.543 70.1685Z" stroke="white"/>
<path d="M53.1357 9.47191C53.1357 8.22927 52.1284 7.22191 50.8857 7.22191C49.6431 7.22191 48.6357 8.22927 48.6357 9.47191C48.6357 10.7145 49.6431 11.7219 50.8857 11.7219C52.1284 11.7219 53.1357 10.7145 53.1357 9.47191Z" fill="#14CDB6" stroke="white" stroke-width="1.5"/>
<path d="M53.8857 9.47191C53.8857 7.81505 52.5426 6.47191 50.8857 6.47191C49.2289 6.47191 47.8857 7.81505 47.8857 9.47191C47.8857 11.1288 49.2289 12.4719 50.8857 12.4719C52.5426 12.4719 53.8857 11.1288 53.8857 9.47191Z" stroke="white"/>
<path d="M29.4143 44.8989V50.4979" stroke="#CDCDCD" stroke-linecap="round" stroke-linejoin="round"/>
<path d="M19.0779 23.006C19.1963 17.474 21.6659 13.5069 27.3647 11.8332C33.0636 10.1596 39.9841 12.9947 41.4232 17.4196C42.8622 21.8446 41.8693 26.0507 37.9419 29.0408C34.0144 32.0308 29.5265 31.782 29.5265 40.1349" stroke="#CDCDCD" stroke-linecap="round" stroke-linejoin="round"/>
<path d="M20.8215 22.7753C20.8215 21.5326 19.8142 20.5253 18.5715 20.5253C17.3289 20.5253 16.3215 21.5326 16.3215 22.7753C16.3215 24.0179 17.3289 25.0253 18.5715 25.0253C19.8142 25.0253 20.8215 24.0179 20.8215 22.7753Z" fill="#14CDB6" stroke="white" stroke-width="1.5"/>
<path d="M21.5715 22.7753C21.5715 21.1184 20.2284 19.7753 18.5715 19.7753C16.9147 19.7753 15.5715 21.1184 15.5715 22.7753C15.5715 24.4321 16.9147 25.7753 18.5715 25.7753C20.2284 25.7753 21.5715 24.4321 21.5715 22.7753Z" stroke="white"/>
<path d="M32.1787 51.5401C32.1787 50.2931 31.1714 49.2823 29.9287 49.2823C28.6861 49.2823 27.6787 50.2931 27.6787 51.5401C27.6787 52.7871 28.6861 53.798 29.9287 53.798C31.1714 53.798 32.1787 52.7871 32.1787 51.5401Z" fill="#14CDB6" stroke="white" stroke-width="1.5"/>
<path d="M32.9287 51.5401C32.9287 49.8775 31.5856 48.5296 29.9287 48.5296C28.2719 48.5296 26.9287 49.8775 26.9287 51.5401C26.9287 53.2027 28.2719 54.5506 29.9287 54.5506C31.5856 54.5506 32.9287 53.2027 32.9287 51.5401Z" stroke="white"/>
</svg>
