<svg width="86" height="60" viewBox="0 0 86 60" fill="none" xmlns="http://www.w3.org/2000/svg">
<path d="M83 4H4V57H83V4Z" stroke="#CDCDCD" stroke-linecap="round" stroke-linejoin="round"/>
<path d="M6.25 56C6.25 54.7574 5.24264 53.75 4 53.75C2.75736 53.75 1.75 54.7574 1.75 56C1.75 57.2426 2.75736 58.25 4 58.25C5.24264 58.25 6.25 57.2426 6.25 56Z" fill="#14CDB6" stroke="white" stroke-width="1.5"/>
<path d="M7 56C7 54.3431 5.65685 53 4 53C2.34315 53 1 54.3431 1 56C1 57.6569 2.34315 59 4 59C5.65685 59 7 57.6569 7 56Z" stroke="white"/>
<path d="M84.25 4C84.25 2.75736 83.2426 1.75 82 1.75C80.7574 1.75 79.75 2.75736 79.75 4C79.75 5.24264 80.7574 6.25 82 6.25C83.2426 6.25 84.25 5.24264 84.25 4Z" fill="#14CDB6" stroke="white" stroke-width="1.5"/>
<path d="M85 4C85 2.34315 83.6569 1 82 1C80.3431 1 79 2.34315 79 4C79 5.65685 80.3431 7 82 7C83.6569 7 85 5.65685 85 4Z" stroke="white"/>
<path d="M56.5981 16H15" stroke="#CDCDCD" stroke-linecap="round" stroke-linejoin="round"/>
<path d="M67.5921 45H37" stroke="#CDCDCD" stroke-linecap="round" stroke-linejoin="round"/>
<path d="M27.5938 36H15" stroke="#CDCDCD" stroke-linecap="round" stroke-linejoin="round"/>
<path d="M42.6042 26H24" stroke="#CDCDCD" stroke-linecap="round" stroke-linejoin="round"/>
<path d="M73.2 26H62" stroke="#CDCDCD" stroke-linecap="round" stroke-linejoin="round"/>
<path d="M61.25 16C61.25 14.7574 60.2426 13.75 59 13.75C57.7574 13.75 56.75 14.7574 56.75 16C56.75 17.2426 57.7574 18.25 59 18.25C60.2426 18.25 61.25 17.2426 61.25 16Z" fill="#14CDB6" stroke="white" stroke-width="1.5"/>
<path d="M62 16C62 14.3431 60.6569 13 59 13C57.3431 13 56 14.3431 56 16C56 17.6569 57.3431 19 59 19C60.6569 19 62 17.6569 62 16Z" stroke="white"/>
<path d="M69.25 45C69.25 43.7574 68.2426 42.75 67 42.75C65.7574 42.75 64.75 43.7574 64.75 45C64.75 46.2426 65.7574 47.25 67 47.25C68.2426 47.25 69.25 46.2426 69.25 45Z" fill="#14CDB6" stroke="white" stroke-width="1.5"/>
<path d="M70 45C70 43.3431 68.6569 42 67 42C65.3431 42 64 43.3431 64 45C64 46.6569 65.3431 48 67 48C68.6569 48 70 46.6569 70 45Z" stroke="white"/>
<path d="M32.25 36C32.25 34.7574 31.2426 33.75 30 33.75C28.7574 33.75 27.75 34.7574 27.75 36C27.75 37.2426 28.7574 38.25 30 38.25C31.2426 38.25 32.25 37.2426 32.25 36Z" fill="#14CDB6" stroke="white" stroke-width="1.5"/>
<path d="M33 36C33 34.3431 31.6569 33 30 33C28.3431 33 27 34.3431 27 36C27 37.6569 28.3431 39 30 39C31.6569 39 33 37.6569 33 36Z" stroke="white"/>
<path d="M46.25 26C46.25 24.7574 45.2426 23.75 44 23.75C42.7574 23.75 41.75 24.7574 41.75 26C41.75 27.2426 42.7574 28.25 44 28.25C45.2426 28.25 46.25 27.2426 46.25 26Z" fill="#14CDB6" stroke="white" stroke-width="1.5"/>
<path d="M47 26C47 24.3431 45.6569 23 44 23C42.3431 23 41 24.3431 41 26C41 27.6569 42.3431 29 44 29C45.6569 29 47 27.6569 47 26Z" stroke="white"/>
<path d="M77.25 26C77.25 24.7574 76.2426 23.75 75 23.75C73.7574 23.75 72.75 24.7574 72.75 26C72.75 27.2426 73.7574 28.25 75 28.25C76.2426 28.25 77.25 27.2426 77.25 26Z" fill="#14CDB6" stroke="white" stroke-width="1.5"/>
<path d="M78 26C78 24.3431 76.6569 23 75 23C73.3431 23 72 24.3431 72 26C72 27.6569 73.3431 29 75 29C76.6569 29 78 27.6569 78 26Z" stroke="white"/>
</svg>
