<svg width="791" height="789" viewBox="0 0 791 789" fill="none" xmlns="http://www.w3.org/2000/svg">
<path fill-rule="evenodd" clip-rule="evenodd" d="M495.282 407.669C517.596 430.715 539.693 453.222 572.678 461.515C596.709 467.453 622.062 464.825 644.361 454.084C673.357 440.084 697.934 409.823 732.213 409.392C750.51 409.135 767.792 417.768 778.565 432.546C806.699 471.099 782.229 512.021 753.342 541.53C719.495 576.206 676.161 605.716 676.377 659.452C676.485 691.22 695.997 725.467 685.209 757.342C669.471 804.081 608.567 789.219 574.723 774.681C544.109 761.436 514.682 747.436 486.979 728.697C472.534 719.008 459.059 707.052 451.407 691.436C432.543 653.099 467.685 627.144 478.249 593.114C483.725 575.146 482.578 555.813 475.016 538.616C461.65 506.956 436.642 481.54 414.435 455.918C393.201 431.471 383.821 384.626 422.519 370.088C440.197 363.411 457.767 371.818 471.028 383.657C479.33 391.184 487.306 399.475 495.282 407.669V407.669Z" fill="#EEEEEE"/>
<mask id="mask0_803_339" style="mask-type:luminance" maskUnits="userSpaceOnUse" x="396" y="367" width="395" height="422">
<path fill-rule="evenodd" clip-rule="evenodd" d="M495.282 407.669C517.596 430.715 539.693 453.222 572.678 461.515C596.709 467.453 622.062 464.825 644.361 454.084C673.357 440.084 697.934 409.823 732.213 409.392C750.51 409.135 767.792 417.768 778.565 432.546C806.699 471.099 782.229 512.021 753.342 541.53C719.495 576.206 676.161 605.716 676.377 659.452C676.485 691.22 695.997 725.467 685.209 757.342C669.471 804.081 608.567 789.219 574.723 774.681C544.109 761.436 514.682 747.436 486.979 728.697C472.534 719.008 459.059 707.052 451.407 691.436C432.543 653.099 467.685 627.144 478.249 593.114C483.725 575.146 482.578 555.813 475.016 538.616C461.65 506.956 436.642 481.54 414.435 455.918C393.201 431.471 383.821 384.626 422.519 370.088C440.197 363.411 457.767 371.818 471.028 383.657C479.33 391.184 487.306 399.475 495.282 407.669V407.669Z" fill="white"/>
</mask>
<g mask="url(#mask0_803_339)">
<path d="M456.801 597.412C456.801 597.412 463.269 654.488 567.829 667.412C672.389 680.336 694.594 785.231 694.594 785.231" stroke="white" stroke-width="6"/>
</g>
<mask id="mask1_803_339" style="mask-type:luminance" maskUnits="userSpaceOnUse" x="396" y="367" width="395" height="422">
<path fill-rule="evenodd" clip-rule="evenodd" d="M495.282 407.669C517.596 430.715 539.693 453.222 572.678 461.515C596.709 467.453 622.062 464.825 644.361 454.084C673.357 440.084 697.934 409.823 732.213 409.392C750.51 409.135 767.792 417.768 778.565 432.546C806.699 471.099 782.229 512.021 753.342 541.53C719.495 576.206 676.161 605.716 676.377 659.452C676.485 691.22 695.997 725.467 685.209 757.342C669.471 804.081 608.567 789.219 574.723 774.681C544.109 761.436 514.682 747.436 486.979 728.697C472.534 719.008 459.059 707.052 451.407 691.436C432.543 653.099 467.685 627.144 478.249 593.114C483.725 575.146 482.578 555.813 475.016 538.616C461.65 506.956 436.642 481.54 414.435 455.918C393.201 431.471 383.821 384.626 422.519 370.088C440.197 363.411 457.767 371.818 471.028 383.657C479.33 391.184 487.306 399.475 495.282 407.669V407.669Z" fill="white"/>
</mask>
<g mask="url(#mask1_803_339)">
<path d="M466.502 548.951C466.502 548.951 472.971 606.027 577.531 618.95C682.091 631.874 704.295 736.77 704.295 736.77" stroke="white" stroke-width="6"/>
</g>
<mask id="mask2_803_339" style="mask-type:luminance" maskUnits="userSpaceOnUse" x="396" y="367" width="395" height="422">
<path fill-rule="evenodd" clip-rule="evenodd" d="M495.282 407.669C517.596 430.715 539.693 453.222 572.678 461.515C596.709 467.453 622.062 464.825 644.361 454.084C673.357 440.084 697.934 409.823 732.213 409.392C750.51 409.135 767.792 417.768 778.565 432.546C806.699 471.099 782.229 512.021 753.342 541.53C719.495 576.206 676.161 605.716 676.378 659.452C676.485 691.22 695.997 725.467 685.209 757.342C669.471 804.081 608.567 789.219 574.723 774.681C544.109 761.436 514.682 747.436 486.979 728.697C472.534 719.008 459.059 707.052 451.407 691.436C432.543 653.099 467.685 627.144 478.249 593.114C483.725 575.146 482.578 555.813 475.016 538.616C461.65 506.956 436.642 481.54 414.435 455.918C393.201 431.471 383.821 384.626 422.519 370.088C440.197 363.411 457.767 371.818 471.028 383.657C479.33 391.184 487.306 399.475 495.282 407.669Z" fill="white"/>
</mask>
<g mask="url(#mask2_803_339)">
<path d="M398.916 439.537C398.916 439.537 406.999 509.214 537.001 525.044C667.109 540.874 694.59 668.919 694.59 668.919" stroke="white" stroke-width="7"/>
</g>
<path fill-rule="evenodd" clip-rule="evenodd" d="M437.685 354.372C416.959 332.955 396.432 312.046 365.793 304.333C343.47 298.814 319.92 301.256 299.207 311.238C272.272 324.249 249.444 352.37 217.603 352.771C200.609 353.009 184.556 344.986 174.55 331.254C148.418 295.426 171.146 257.396 197.98 229.976C229.42 197.751 269.672 170.329 269.472 120.39C269.372 90.8677 251.248 59.0474 261.262 29.4191C275.881 -14.0154 332.455 -0.203114 363.894 13.3065C392.33 25.6158 419.666 38.6265 445.399 56.0416C458.818 65.0385 471.334 76.1579 478.443 90.6694C495.965 126.297 463.322 150.417 453.511 182.041C448.425 198.737 449.491 216.702 456.514 232.681C468.93 262.105 492.159 285.722 512.787 309.541C532.512 332.258 541.223 375.791 505.277 389.302C488.856 395.508 472.545 387.701 460.219 376.692C452.502 369.685 445.095 361.978 437.685 354.372V354.372Z" fill="#A737FF"/>
<path fill-rule="evenodd" clip-rule="evenodd" d="M219.589 576.154C159.012 620.789 72.6006 576.455 75.5035 501.196C75.5035 500.196 75.6038 499.194 75.6038 498.294C81.3115 403.214 -52.8703 386.806 23.6414 341.571C100.153 296.335 18.527 264.51 95.3331 234.087C172.223 203.671 215.784 140.828 309.699 246.204C395.212 342.18 459.797 304.15 443.475 385.913C440.342 401.129 438.697 416.614 438.566 432.149C438.465 457.87 425.749 503.404 342.842 521.318C298.329 530.646 256.314 549.339 219.589 576.154L219.589 576.154Z" fill="#14CDB6"/>
<ellipse cx="575.699" cy="359.384" rx="61.4427" ry="61.3838" fill="#A737FF"/>
<mask id="mask3_803_339" style="mask-type:luminance" maskUnits="userSpaceOnUse" x="396" y="367" width="395" height="422">
<path fill-rule="evenodd" clip-rule="evenodd" d="M495.282 407.669C517.596 430.715 539.693 453.222 572.678 461.515C596.709 467.453 622.062 464.825 644.361 454.084C673.357 440.084 697.934 409.823 732.213 409.392C750.51 409.135 767.792 417.768 778.565 432.546C806.699 471.099 782.229 512.021 753.342 541.53C719.495 576.206 676.161 605.716 676.378 659.452C676.485 691.22 695.997 725.467 685.209 757.342C669.471 804.081 608.567 789.219 574.723 774.681C544.109 761.436 514.682 747.436 486.979 728.697C472.534 719.008 459.059 707.052 451.407 691.436C432.543 653.099 467.685 627.144 478.249 593.114C483.725 575.146 482.578 555.813 475.016 538.616C461.65 506.956 436.642 481.54 414.435 455.918C393.201 431.471 383.821 384.626 422.519 370.088C440.197 363.411 457.767 371.818 471.028 383.657C479.33 391.184 487.306 399.475 495.282 407.669Z" fill="white"/>
</mask>
<g mask="url(#mask3_803_339)">
</g>
<path d="M445.592 361.462C445.592 361.462 453.675 431.138 583.677 446.968C713.678 462.799 741.164 590.843 741.164 590.843" stroke="white" stroke-width="7"/>
</svg>
